# Blender v2.83.4 OBJ File: 'Obstacals ALL.blend'
# www.blender.org
o Debris6_path856
v -0.114003 -0.065482 0.138502
v -0.005743 0.034422 1.314364
v -0.080915 0.034422 1.287392
v -0.158759 0.034422 1.278388
v -0.242847 0.034422 1.287351
v -0.624757 0.034422 1.424298
v -0.174835 -0.065482 0.185026
v -0.740637 0.034422 1.428282
v -0.821193 0.034422 1.409307
v -1.094162 0.034422 1.273768
v -0.245866 -0.065482 0.225437
v -1.180727 0.034422 1.199967
v -0.321702 -0.065482 0.256174
v -1.225171 0.034422 1.121047
v -0.396937 -0.065482 0.273678
v -1.229102 0.034422 1.031421
v -0.468846 -0.065482 0.279641
v -1.194123 0.034422 0.925501
v -1.105603 0.034422 0.768640
v -1.078453 0.034422 0.697761
v -1.059025 0.034422 0.615022
v -1.046391 0.034422 0.438713
v -1.054720 0.034422 0.357516
v -1.075419 0.034422 0.268389
v -0.908020 -0.065482 0.102525
v -0.976805 -0.065482 0.100759
v -1.038246 -0.065482 0.153915
v -1.075419 -0.065482 0.268389
v -1.038246 0.034422 0.153915
v -1.054720 -0.065482 0.357516
v -0.976805 0.034422 0.100759
v -1.046391 -0.065482 0.438713
v -1.059025 -0.065482 0.615022
v -1.078453 -0.065482 0.697761
v -0.908020 0.034422 0.102525
v -1.105603 -0.065482 0.768640
v -1.194123 -0.065482 0.925501
v -0.468846 0.034422 0.279641
v -0.396937 0.034422 0.273678
v -0.321702 0.034422 0.256174
v -0.245866 0.034422 0.225437
v -0.174835 0.034422 0.185026
v -0.114003 0.034422 0.138502
v -0.068771 0.034422 0.089423
v -1.229102 -0.065482 1.031421
v -1.225171 -0.065482 1.121047
v -0.028583 0.034422 -0.040185
v -0.023992 0.034422 -0.119885
v -0.031273 0.034422 -0.200863
v -0.050930 0.034422 -0.286232
v -0.222192 0.034422 -0.720303
v -1.180727 -0.065482 1.199967
v -0.231470 0.034422 -0.849241
v -1.094162 -0.065482 1.273768
v -0.209861 0.034422 -0.933199
v -0.031971 0.034422 -1.220860
v 0.026882 0.034422 -1.354818
v 0.093654 0.034422 -1.593268
v 0.135531 0.034422 -1.692338
v 0.186244 0.034422 -1.771368
v -0.821193 -0.065482 1.409307
v 0.288575 0.034422 -1.867441
v 0.380760 0.034422 -1.926576
v 0.456804 0.034422 -1.962791
v 0.534239 0.034422 -1.985098
v 0.610422 0.034422 -1.993448
v 0.682708 0.034422 -1.987794
v 0.748455 0.034422 -1.968088
v -0.740637 -0.065482 1.428282
v 0.876445 0.034422 -1.877141
v 0.835747 0.034422 -1.288296
v 0.841748 0.034422 -1.205101
v -0.624757 -0.065482 1.424298
v 0.868981 0.034422 -1.140507
v 1.132914 0.034422 -0.765483
v -0.242847 -0.065482 1.287351
v 1.193678 0.034422 -0.611573
v -0.158759 -0.065482 1.278388
v 1.190707 0.034422 -0.513744
v -0.080915 -0.065482 1.287392
v 0.957733 0.034422 -0.026490
v 0.928952 0.034422 0.079131
v 0.925012 0.034422 0.147429
v 0.949142 0.034422 0.325137
v 0.985049 0.034422 0.426160
v 1.104537 0.034422 0.657311
v -0.005743 -0.065482 1.314364
v 1.131486 0.034422 0.751038
v 1.135740 0.034422 0.916003
v 1.126320 0.034422 1.004201
v 1.093490 0.034422 1.121127
v 1.057999 0.034422 1.191614
v 1.010715 0.034422 1.258354
v 0.950859 0.034422 1.323254
v 0.850025 0.034422 1.407189
v 0.743544 0.034422 1.469252
v 0.633504 0.034422 1.508912
v 0.521991 0.034422 1.525637
v 0.411095 0.034422 1.518896
v 0.302902 0.034422 1.488157
v -0.068771 -0.065482 0.089423
v -0.028583 -0.065482 -0.040185
v -0.023992 -0.065482 -0.119885
v -0.031273 -0.065482 -0.200863
v -0.050930 -0.065482 -0.286232
v -0.222192 -0.065482 -0.720303
v -0.231470 -0.065482 -0.849241
v -0.209861 -0.065482 -0.933199
v -0.031971 -0.065482 -1.220860
v 0.026882 -0.065482 -1.354818
v 0.093654 -0.065482 -1.593268
v 0.135531 -0.065482 -1.692338
v 0.186244 -0.065482 -1.771368
v 0.288575 -0.065482 -1.867441
v 0.380760 -0.065482 -1.926576
v 0.456804 -0.065482 -1.962791
v 0.534239 -0.065482 -1.985098
v 0.610422 -0.065482 -1.993448
v 0.682708 -0.065482 -1.987794
v 0.748455 -0.065482 -1.968088
v 0.876445 -0.065482 -1.877141
v 0.835747 -0.065482 -1.288296
v 0.841748 -0.065482 -1.205101
v 0.868981 -0.065482 -1.140507
v 1.132914 -0.065482 -0.765483
v 1.193678 -0.065482 -0.611573
v 1.190707 -0.065482 -0.513744
v 0.957733 -0.065482 -0.026490
v 0.928952 -0.065482 0.079131
v 0.925012 -0.065482 0.147429
v 0.949142 -0.065482 0.325137
v 0.985049 -0.065482 0.426160
v 1.104537 -0.065482 0.657311
v 1.131486 -0.065482 0.751038
v 1.135740 -0.065482 0.916003
v 1.126320 -0.065482 1.004201
v 1.093490 -0.065482 1.121127
v 1.057999 -0.065482 1.191614
v 1.010715 -0.065482 1.258354
v 0.950859 -0.065482 1.323254
v 0.850025 -0.065482 1.407189
v 0.743544 -0.065482 1.469252
v 0.633504 -0.065482 1.508912
v 0.521991 -0.065482 1.525637
v 0.411095 -0.065482 1.518896
v 0.302902 -0.065482 1.488157
vt 0.050627 0.049145
vt 0.050301 0.050262
vt 0.050301 0.050262
vt 0.049969 0.047703
vt 0.050112 0.047748
vt 0.050112 0.047748
vt 0.052738 0.045340
vt 0.052648 0.045168
vt 0.052648 0.045168
vt 0.051079 0.052969
vt 0.051273 0.053216
vt 0.051273 0.053216
vt 0.052024 0.053526
vt 0.052149 0.053475
vt 0.052149 0.053475
vt 0.849429 0.253211
vt 0.910780 0.330283
vt 0.838007 0.292373
vt 0.841166 0.210695
vt 0.847430 0.111241
vt 0.836428 0.207049
vt 0.051594 0.053461
vt 0.051741 0.053519
vt 0.051741 0.053519
vt 0.052326 0.051511
vt 0.052378 0.051344
vt 0.052378 0.051344
vt 0.050665 0.048925
vt 0.050627 0.049145
vt 0.050284 0.050594
vt 0.050325 0.050810
vt 0.050325 0.050810
vt 0.050422 0.045116
vt 0.050262 0.045093
vt 0.050262 0.045093
vt 0.050678 0.048716
vt 0.050665 0.048925
vt 0.051449 0.053368
vt 0.051594 0.053461
vt 0.050284 0.050594
vt 0.050570 0.045093
vt 0.050422 0.045116
vt 0.049832 0.047688
vt 0.049969 0.047703
vt 0.050670 0.048511
vt 0.050678 0.048716
vt 0.051449 0.053368
vt 0.052880 0.050379
vt 0.052996 0.049982
vt 0.052996 0.049982
vt 0.052534 0.045001
vt 0.052534 0.045001
vt 0.052485 0.048028
vt 0.052531 0.047571
vt 0.052531 0.047571
vt 0.052990 0.049730
vt 0.052990 0.049730
vt 0.050713 0.045024
vt 0.050570 0.045093
vt 0.048717 0.047487
vt 0.048677 0.047717
vt 0.048677 0.047717
vt 0.052547 0.048476
vt 0.052547 0.048476
vt 0.052342 0.044785
vt 0.052342 0.044785
vt 0.048732 0.047278
vt 0.048717 0.047487
vt 0.050593 0.048177
vt 0.050670 0.048511
vt 0.049161 0.044779
vt 0.048641 0.045128
vt 0.048641 0.045128
vt 0.052599 0.047310
vt 0.052599 0.047310
vt 0.052492 0.048204
vt 0.052492 0.048204
vt 0.050982 0.052765
vt 0.051079 0.052969
vt 0.048865 0.048148
vt 0.048996 0.048144
vt 0.048996 0.048144
vt 0.049535 0.044740
vt 0.049535 0.044740
vt 0.048708 0.046824
vt 0.048732 0.047278
vt 0.050902 0.052510
vt 0.050982 0.052765
vt 0.048748 0.048011
vt 0.048865 0.048148
vt 0.049314 0.044730
vt 0.049161 0.044779
vt 0.052826 0.046715
vt 0.052826 0.046715
vt 0.050775 0.051896
vt 0.050902 0.052510
vt 0.048748 0.048011
vt 0.048671 0.046611
vt 0.048708 0.046824
vt 0.052392 0.053241
vt 0.052315 0.051725
vt 0.052315 0.051725
vt 0.049832 0.047688
vt 0.050663 0.051551
vt 0.050775 0.051896
vt 0.052878 0.046474
vt 0.052878 0.046474
vt 0.052139 0.044625
vt 0.052139 0.044625
vt 0.052326 0.051511
vt 0.048385 0.045752
vt 0.048451 0.046025
vt 0.048451 0.046025
vt 0.048620 0.046429
vt 0.048671 0.046611
vt 0.052485 0.048028
vt 0.048392 0.045521
vt 0.048385 0.045752
vt 0.048620 0.046429
vt 0.050507 0.048051
vt 0.050593 0.048177
vt 0.048477 0.045318
vt 0.048392 0.045521
vt 0.051930 0.044523
vt 0.051930 0.044523
vt 0.052886 0.046049
vt 0.052886 0.046049
vt 0.050663 0.051551
vt 0.048477 0.045318
vt 0.051507 0.044497
vt 0.051301 0.044576
vt 0.051301 0.044576
vt 0.049314 0.044730
vt 0.051718 0.044480
vt 0.051507 0.044497
vt 0.052868 0.045822
vt 0.052868 0.045822
vt 0.050391 0.047931
vt 0.050507 0.048051
vt 0.050713 0.045024
vt 0.051718 0.044480
vt 0.052880 0.050379
vt 0.050256 0.047827
vt 0.050391 0.047931
vt 0.052805 0.045521
vt 0.052805 0.045521
vt 0.052738 0.045340
vt 0.050256 0.047827
vt 0.051886 0.053540
vt 0.052024 0.053526
vt 0.051886 0.053540
vt 0.052392 0.053241
vt 0.836630 0.111245
vt 0.780901 0.164437
vt 0.811159 0.098890
vt 0.798058 0.100242
vt 0.803431 0.098530
vt 0.779090 0.158042
vt 0.779853 0.112470
vt 0.773187 0.143890
vt 0.774080 0.119128
vt 0.770854 0.134334
vt 0.771116 0.126248
vt 0.842238 0.112053
vt 0.826353 0.202697
vt 0.821558 0.202159
vt 0.782197 0.171902
vt 0.847430 0.111241
vt 0.836428 0.207049
vt 0.783039 0.187808
vt 0.880243 0.090355
vt 0.887639 0.089747
vt 0.873027 0.093128
vt 0.918521 0.188940
vt 0.852443 0.108808
vt 0.916241 0.108006
vt 0.928571 0.144747
vt 0.841166 0.210695
vt 0.782484 0.195133
vt 0.792268 0.218138
vt 0.781103 0.203174
vt 0.783583 0.213502
vt 0.831371 0.204276
vt 0.909516 0.100433
vt 0.902415 0.094834
vt 0.895076 0.091256
vt 0.923386 0.119882
vt 0.927943 0.136790
vt 0.920233 0.113861
vt 0.925753 0.126241
vt 0.928288 0.159630
vt 0.926490 0.168086
vt 0.787680 0.218298
vt 0.916127 0.198055
vt 0.845223 0.214892
vt 0.914517 0.214087
vt 0.848239 0.219320
vt 0.914780 0.220249
vt 0.850920 0.231013
vt 0.932435 0.282563
vt 0.928383 0.296449
vt 0.932237 0.273737
vt 0.916700 0.229778
vt 0.851226 0.238204
vt 0.850740 0.245510
vt 0.908964 0.336111
vt 0.850694 0.337532
vt 0.902742 0.404946
vt 0.893537 0.407234
vt 0.911278 0.396741
vt 0.883291 0.404468
vt 0.908564 0.343616
vt 0.888456 0.406481
vt 0.854619 0.349618
vt 0.898357 0.406724
vt 0.872072 0.395866
vt 0.878220 0.401201
vt 0.861865 0.380068
vt 0.865247 0.387198
vt 0.859072 0.371131
vt 0.837388 0.304006
vt 0.838830 0.311580
vt 0.852443 0.108808
vt 0.918521 0.188940
vt 0.873027 0.093128
vt 0.895076 0.091256
vt 0.880243 0.090355
vt 0.887639 0.089747
vt 0.902415 0.094834
vt 0.909516 0.100433
vt 0.916241 0.108006
vt 0.928571 0.144747
vt 0.920233 0.113861
vt 0.925753 0.126241
vt 0.923386 0.119882
vt 0.927943 0.136790
vt 0.926490 0.168086
vt 0.928288 0.159630
vt 0.845223 0.214892
vt 0.848239 0.219320
vt 0.916127 0.198055
vt 0.914517 0.214087
vt 0.842238 0.112053
vt 0.850920 0.231013
vt 0.914780 0.220249
vt 0.803431 0.098530
vt 0.798058 0.100242
vt 0.811159 0.098890
vt 0.780901 0.164437
vt 0.836630 0.111245
vt 0.779090 0.158042
vt 0.826353 0.202697
vt 0.916700 0.229778
vt 0.928383 0.296449
vt 0.932237 0.273737
vt 0.932435 0.282563
vt 0.851226 0.238204
vt 0.774080 0.119128
vt 0.773187 0.143890
vt 0.779853 0.112470
vt 0.770854 0.134334
vt 0.771116 0.126248
vt 0.849429 0.253211
vt 0.910780 0.330283
vt 0.850740 0.245510
vt 0.850694 0.337532
vt 0.908964 0.336111
vt 0.908564 0.343616
vt 0.883291 0.404468
vt 0.911278 0.396741
vt 0.893537 0.407234
vt 0.902742 0.404946
vt 0.854619 0.349618
vt 0.782197 0.171902
vt 0.821558 0.202159
vt 0.783039 0.187808
vt 0.888456 0.406481
vt 0.898357 0.406724
vt 0.878220 0.401201
vt 0.872072 0.395866
vt 0.865247 0.387198
vt 0.861865 0.380068
vt 0.859072 0.371131
vt 0.838007 0.292373
vt 0.838830 0.311580
vt 0.837388 0.304006
vt 0.782484 0.195133
vt 0.783583 0.213502
vt 0.792268 0.218138
vt 0.781103 0.203174
vt 0.787680 0.218298
vt 0.831371 0.204276
vn -0.9302 0.0000 0.3670
vn -0.2266 0.0000 -0.9740
vn 0.8160 0.0000 0.5781
vn -0.6845 0.0000 -0.7290
vn 0.2871 0.0000 -0.9579
vn 0.0000 1.0000 0.0000
vn 0.0000 -1.0000 -0.0000
vn -0.2768 0.0000 -0.9609
vn 0.9215 0.0000 -0.3885
vn -0.9745 0.0000 0.2244
vn -0.9684 0.0000 -0.2493
vn 0.1060 0.0000 0.9944
vn -0.9960 0.0000 0.0895
vn -0.4300 0.0000 -0.9028
vn -0.9974 0.0000 0.0718
vn -0.1149 0.0000 0.9934
vn -0.0826 0.0000 -0.9966
vn -0.9983 0.0000 -0.0575
vn -0.5399 0.0000 -0.8417
vn 0.9301 0.0000 -0.3672
vn 0.7351 0.0000 0.6780
vn 0.9909 0.0000 -0.1345
vn 0.9995 0.0000 0.0304
vn -0.3377 0.0000 0.9412
vn -0.9741 0.0000 0.2262
vn 0.9022 0.0000 0.4314
vn 0.6398 0.0000 0.7686
vn -0.9948 0.0000 0.1020
vn -0.9551 0.0000 -0.2962
vn -0.4447 0.0000 0.8957
vn 0.9422 0.0000 -0.3349
vn 0.9648 0.0000 0.2629
vn -0.8416 0.0000 -0.5401
vn 0.0257 0.0000 -0.9997
vn 0.3375 0.0000 0.9413
vn -0.9974 0.0000 -0.0715
vn -0.9211 0.0000 -0.3894
vn -0.6543 0.0000 -0.7563
vn -0.2293 0.0000 0.9734
vn 0.8883 0.0000 -0.4592
vn -0.9630 0.0000 -0.2696
vn -0.9511 0.0000 -0.3088
vn -0.9735 0.0000 -0.2286
vn 0.9976 0.0000 0.0690
vn 0.3740 0.0000 -0.9274
vn -0.9155 0.0000 -0.4022
vn 0.9611 0.0000 -0.2763
vn 0.5036 0.0000 0.8640
vn 0.9974 0.0000 -0.0720
vn -0.9496 0.0000 -0.3136
vn -0.9338 0.0000 -0.3577
vn 0.9983 0.0000 0.0576
vn -0.9990 0.0000 0.0438
vn -0.8709 0.0000 -0.4915
vn -0.7353 0.0000 -0.6777
vn -0.8713 0.0000 0.4907
vn 0.3391 0.0000 0.9408
vn 0.9997 0.0000 -0.0258
vn -0.8505 0.0000 -0.5260
vn -0.6488 0.0000 0.7610
vn -0.2733 0.0000 0.9619
vn 0.0344 0.0000 0.9994
vn -0.0607 0.0000 0.9982
vn 0.9943 0.0000 0.1062
vn -0.6075 0.0000 -0.7943
vn -0.4906 0.0000 0.8714
vn 0.1483 0.0000 0.9889
vn 0.8178 0.0000 -0.5755
vn -0.4945 0.0000 -0.8692
vn 0.9628 0.0000 0.2703
vn 0.8932 0.0000 0.4497
vn -0.3756 0.0000 -0.9268
vn 0.0780 0.0000 -0.9970
vn -0.1090 0.0000 -0.9940
vn 0.5792 0.0000 -0.8152
g Debris6_path856_SVGMat.004
s off
f 50/1/1 51/2/1 106/3/1
f 39/4/2 40/5/2 13/6/2
f 92/7/3 93/8/3 139/9/3
f 60/10/4 62/11/4 114/12/4
f 67/13/5 68/14/5 120/15/5
f 50/16/6 74/17/6 51/18/6
f 7/19/7 80/20/7 11/21/7
f 64/22/8 65/23/8 117/24/8
f 72/25/9 74/26/9 124/27/9
f 49/28/10 50/1/10 105/29/10
f 53/30/11 55/31/11 108/32/11
f 4/33/12 5/34/12 76/35/12
f 48/36/13 49/28/13 104/37/13
f 63/38/14 64/22/14 116/39/14
f 51/2/15 53/30/15 107/40/15
f 3/41/16 4/33/16 78/42/16
f 38/43/17 39/4/17 15/44/17
f 47/45/18 48/36/18 103/46/18
f 62/11/19 63/38/19 115/47/19
f 75/48/20 77/49/20 126/50/20
f 93/8/21 94/51/21 140/52/21
f 83/53/22 84/54/22 131/55/22
f 77/49/23 79/56/23 127/57/23
f 2/58/24 3/41/24 80/59/24
f 23/60/25 24/61/25 28/62/25
f 79/56/26 81/63/26 128/64/26
f 94/51/27 95/65/27 141/66/27
f 22/67/28 23/60/28 30/68/28
f 44/69/29 47/45/29 102/70/29
f 9/71/30 10/72/30 54/73/30
f 84/54/31 85/74/31 132/75/31
f 81/63/32 82/76/32 129/77/32
f 59/78/33 60/10/33 113/79/33
f 31/80/34 35/81/34 25/82/34
f 5/34/35 6/83/35 73/84/35
f 21/85/36 22/67/36 32/86/36
f 58/87/37 59/78/37 112/88/37
f 29/89/38 31/80/38 26/90/38
f 8/91/39 9/71/39 61/92/39
f 85/74/40 86/93/40 133/94/40
f 57/95/41 58/87/41 111/96/41
f 24/61/42 29/89/42 27/97/42
f 20/98/43 21/85/43 33/99/43
f 70/100/44 71/101/44 122/102/44
f 35/81/45 38/43/45 17/103/45
f 56/104/46 57/95/46 110/105/46
f 86/93/47 88/106/47 134/107/47
f 95/65/48 96/108/48 142/109/48
f 71/101/49 72/25/49 123/110/49
f 16/111/50 18/112/50 37/113/50
f 19/114/51 20/98/51 34/115/51
f 82/76/52 83/53/52 130/116/52
f 14/117/53 16/111/53 45/118/53
f 18/112/54 19/114/54 36/119/54
f 43/120/55 44/69/55 101/121/55
f 12/122/56 14/117/56 46/123/56
f 96/108/57 97/124/57 143/125/57
f 88/106/58 89/126/58 135/127/58
f 55/31/59 56/104/59 109/128/59
f 10/72/60 12/122/60 52/129/60
f 99/130/61 100/131/61 146/132/61
f 6/83/62 8/91/62 69/133/62
f 98/134/63 99/130/63 145/135/63
f 89/126/64 90/136/64 136/137/64
f 42/138/65 43/120/65 1/139/65
f 100/131/66 2/58/66 87/140/66
f 97/124/67 98/134/67 144/141/67
f 74/26/68 75/48/68 125/142/68
f 41/143/69 42/138/69 7/144/69
f 90/136/70 91/145/70 137/146/70
f 91/145/71 92/7/71 138/147/71
f 40/5/72 41/143/72 11/148/72
f 66/149/73 67/13/73 119/150/73
f 65/23/74 66/149/74 118/151/74
f 68/14/75 70/100/75 121/152/75
f 50/1/1 106/3/1 105/29/1
f 39/4/2 13/6/2 15/44/2
f 92/7/3 139/9/3 138/147/3
f 60/10/4 114/12/4 113/79/4
f 67/13/5 120/15/5 119/150/5
f 5/153/6 20/154/6 6/155/6
f 6/155/6 9/156/6 8/157/6
f 20/154/6 19/158/6 6/155/6
f 9/156/6 19/158/6 10/159/6
f 10/159/6 18/160/6 12/161/6
f 12/161/6 16/162/6 14/163/6
f 18/160/6 16/162/6 12/161/6
f 18/160/6 10/159/6 19/158/6
f 19/158/6 9/156/6 6/155/6
f 4/164/6 39/165/6 5/153/6
f 5/153/6 38/166/6 20/154/6
f 5/153/6 39/165/6 38/166/6
f 20/154/6 38/166/6 21/167/6
f 3/168/6 41/169/6 4/164/6
f 21/167/6 38/166/6 22/170/6
f 99/171/6 98/172/6 100/173/6
f 100/173/6 85/174/6 2/175/6
f 94/176/6 89/177/6 100/173/6
f 2/175/6 42/178/6 3/168/6
f 23/179/6 35/180/6 24/181/6
f 24/181/6 35/180/6 29/182/6
f 4/164/6 40/183/6 39/165/6
f 22/170/6 38/166/6 23/179/6
f 100/173/6 95/184/6 94/176/6
f 96/185/6 95/184/6 100/173/6
f 96/185/6 100/173/6 97/186/6
f 97/186/6 100/173/6 98/172/6
f 92/187/6 90/188/6 93/189/6
f 93/189/6 90/188/6 94/176/6
f 90/188/6 92/187/6 91/190/6
f 88/191/6 86/192/6 89/177/6
f 89/177/6 94/176/6 90/188/6
f 86/192/6 100/173/6 89/177/6
f 85/174/6 100/173/6 86/192/6
f 29/182/6 35/180/6 31/193/6
f 35/180/6 23/179/6 38/166/6
f 4/164/6 41/169/6 40/183/6
f 84/194/6 43/195/6 85/174/6
f 2/175/6 43/195/6 42/178/6
f 83/196/6 44/197/6 84/194/6
f 85/174/6 43/195/6 2/175/6
f 3/168/6 42/178/6 41/169/6
f 82/198/6 47/199/6 83/196/6
f 77/200/6 75/201/6 79/202/6
f 79/202/6 75/201/6 81/203/6
f 81/203/6 48/204/6 82/198/6
f 84/194/6 44/197/6 43/195/6
f 74/17/6 50/16/6 75/201/6
f 75/201/6 50/16/6 81/203/6
f 50/16/6 49/205/6 81/203/6
f 83/196/6 47/199/6 44/197/6
f 72/206/6 56/207/6 74/17/6
f 68/208/6 66/209/6 70/210/6
f 70/210/6 64/211/6 71/212/6
f 66/209/6 65/213/6 70/210/6
f 82/198/6 48/204/6 47/199/6
f 71/212/6 57/214/6 72/206/6
f 70/210/6 65/213/6 64/211/6
f 66/209/6 68/208/6 67/215/6
f 62/216/6 71/212/6 63/217/6
f 63/217/6 71/212/6 64/211/6
f 59/218/6 71/212/6 60/219/6
f 60/219/6 71/212/6 62/216/6
f 57/214/6 71/212/6 58/220/6
f 58/220/6 71/212/6 59/218/6
f 53/221/6 51/18/6 55/222/6
f 55/222/6 51/18/6 56/207/6
f 56/207/6 72/206/6 57/214/6
f 81/203/6 49/205/6 48/204/6
f 51/18/6 74/17/6 56/207/6
f 87/223/7 132/224/7 146/225/7
f 146/225/7 143/226/7 145/227/7
f 145/227/7 143/226/7 144/228/7
f 143/226/7 146/225/7 142/229/7
f 142/229/7 146/225/7 141/230/7
f 141/230/7 146/225/7 140/231/7
f 140/231/7 135/232/7 139/233/7
f 139/233/7 137/234/7 138/235/7
f 137/234/7 139/233/7 136/236/7
f 136/236/7 139/233/7 135/232/7
f 135/232/7 133/237/7 134/238/7
f 135/232/7 146/225/7 133/237/7
f 133/237/7 146/225/7 132/224/7
f 140/231/7 146/225/7 135/232/7
f 80/20/7 7/19/7 87/223/7
f 1/239/7 101/240/7 131/241/7
f 132/224/7 1/239/7 131/241/7
f 87/223/7 1/239/7 132/224/7
f 131/241/7 101/240/7 130/242/7
f 78/243/7 11/21/7 80/20/7
f 87/223/7 7/19/7 1/239/7
f 130/242/7 102/244/7 129/245/7
f 101/240/7 102/244/7 130/242/7
f 69/246/7 61/247/7 73/248/7
f 73/248/7 34/249/7 76/250/7
f 36/251/7 34/249/7 73/248/7
f 76/250/7 15/252/7 78/243/7
f 128/253/7 125/254/7 127/255/7
f 127/255/7 125/254/7 126/256/7
f 129/245/7 103/257/7 128/253/7
f 73/248/7 61/247/7 36/251/7
f 52/258/7 37/259/7 54/260/7
f 54/260/7 36/251/7 61/247/7
f 45/261/7 52/258/7 46/262/7
f 36/251/7 54/260/7 37/259/7
f 37/259/7 52/258/7 45/261/7
f 125/254/7 105/263/7 124/264/7
f 128/253/7 105/263/7 125/254/7
f 103/257/7 104/265/7 128/253/7
f 129/245/7 102/244/7 103/257/7
f 124/264/7 109/266/7 123/267/7
f 104/265/7 105/263/7 128/253/7
f 122/268/7 116/269/7 121/270/7
f 121/270/7 118/271/7 120/272/7
f 123/267/7 110/273/7 122/268/7
f 33/274/7 17/275/7 34/249/7
f 34/249/7 17/275/7 76/250/7
f 32/276/7 17/275/7 33/274/7
f 121/270/7 117/277/7 118/271/7
f 116/269/7 117/277/7 121/270/7
f 120/272/7 118/271/7 119/278/7
f 116/269/7 122/268/7 115/279/7
f 115/279/7 122/268/7 114/280/7
f 114/280/7 122/268/7 113/281/7
f 113/281/7 122/268/7 112/282/7
f 112/282/7 122/268/7 111/283/7
f 111/283/7 122/268/7 110/273/7
f 109/266/7 106/284/7 108/285/7
f 108/285/7 106/284/7 107/286/7
f 110/273/7 123/267/7 109/266/7
f 30/287/7 17/275/7 32/276/7
f 27/288/7 25/289/7 28/290/7
f 28/290/7 25/289/7 30/287/7
f 25/289/7 27/288/7 26/291/7
f 17/275/7 30/287/7 25/289/7
f 109/266/7 124/264/7 106/284/7
f 106/284/7 124/264/7 105/263/7
f 15/252/7 76/250/7 17/275/7
f 13/292/7 78/243/7 15/252/7
f 11/21/7 78/243/7 13/292/7
f 64/22/8 117/24/8 116/39/8
f 72/25/9 124/27/9 123/110/9
f 49/28/10 105/29/10 104/37/10
f 53/30/11 108/32/11 107/40/11
f 4/33/12 76/35/12 78/42/12
f 48/36/13 104/37/13 103/46/13
f 63/38/14 116/39/14 115/47/14
f 51/2/15 107/40/15 106/3/15
f 3/41/16 78/42/16 80/59/16
f 38/43/17 15/44/17 17/103/17
f 47/45/18 103/46/18 102/70/18
f 62/11/19 115/47/19 114/12/19
f 75/48/20 126/50/20 125/142/20
f 93/8/21 140/52/21 139/9/21
f 83/53/22 131/55/22 130/116/22
f 77/49/23 127/57/23 126/50/23
f 2/58/24 80/59/24 87/140/24
f 23/60/25 28/62/25 30/68/25
f 79/56/26 128/64/26 127/57/26
f 94/51/27 141/66/27 140/52/27
f 22/67/28 30/68/28 32/86/28
f 44/69/29 102/70/29 101/121/29
f 9/71/30 54/73/30 61/92/30
f 84/54/31 132/75/31 131/55/31
f 81/63/32 129/77/32 128/64/32
f 59/78/33 113/79/33 112/88/33
f 31/80/34 25/82/34 26/90/34
f 5/34/35 73/84/35 76/35/35
f 21/85/36 32/86/36 33/99/36
f 58/87/37 112/88/37 111/96/37
f 29/89/38 26/90/38 27/97/38
f 8/91/39 61/92/39 69/133/39
f 85/74/40 133/94/40 132/75/40
f 57/95/41 111/96/41 110/105/41
f 24/61/42 27/97/42 28/62/42
f 20/98/43 33/99/43 34/115/43
f 70/100/44 122/102/44 121/152/44
f 35/81/45 17/103/45 25/82/45
f 56/104/46 110/105/46 109/128/46
f 86/93/47 134/107/47 133/94/47
f 95/65/48 142/109/48 141/66/48
f 71/101/49 123/110/49 122/102/49
f 16/111/50 37/113/50 45/118/50
f 19/114/51 34/115/51 36/119/51
f 82/76/52 130/116/52 129/77/52
f 14/117/53 45/118/53 46/123/53
f 18/112/54 36/119/54 37/113/54
f 43/120/55 101/121/55 1/139/55
f 12/122/56 46/123/56 52/129/56
f 96/108/57 143/125/57 142/109/57
f 88/106/58 135/127/58 134/107/58
f 55/31/59 109/128/59 108/32/59
f 10/72/60 52/129/60 54/73/60
f 99/130/61 146/132/61 145/135/61
f 6/83/62 69/133/62 73/84/62
f 98/134/63 145/135/63 144/141/63
f 89/126/64 136/137/64 135/127/64
f 42/138/65 1/139/65 7/144/65
f 100/131/66 87/140/66 146/132/66
f 97/124/67 144/141/67 143/125/67
f 74/26/68 125/142/68 124/27/68
f 41/143/69 7/144/69 11/148/69
f 90/136/70 137/146/70 136/137/70
f 91/145/71 138/147/71 137/146/71
f 40/5/72 11/148/72 13/6/72
f 66/149/73 119/150/73 118/151/73
f 65/23/74 118/151/74 117/24/74
f 68/14/75 121/152/75 120/15/75
